<svg width="58" height="58" viewBox="0 0 58 58" fill="none" xmlns="http://www.w3.org/2000/svg">
<path d="M28.6007 6.15332C22.9413 6.15355 17.4666 8.16756 13.1563 11.835C8.84589 15.5024 5.98113 20.5839 5.07456 26.1702C4.168 31.7566 5.27878 37.4832 8.20817 42.3255C11.1376 47.1678 15.6944 50.8098 21.0633 52.5997C22.255 52.8083 22.7019 52.0933 22.7019 51.4676C22.7019 50.9016 22.6721 49.0246 22.6721 47.0285C16.6838 48.1308 15.1346 45.5688 14.6579 44.2281C14.1289 42.9242 13.2905 41.7687 12.2149 40.8615C11.3807 40.4146 10.189 39.3123 12.1851 39.2826C12.9473 39.3653 13.6783 39.6305 14.3162 40.0557C14.9541 40.481 15.4801 41.0537 15.8496 41.7255C16.1756 42.3111 16.6139 42.8266 17.1394 43.2425C17.665 43.6584 18.2675 43.9665 18.9123 44.1492C19.5572 44.3318 20.2317 44.3855 20.8973 44.307C21.5629 44.2285 22.2065 44.0194 22.7912 43.6918C22.8943 42.4801 23.4344 41.3472 24.3106 40.5041C19.0076 39.9082 13.4662 37.8525 13.4662 28.7361C13.4327 26.3673 14.3068 24.0755 15.9092 22.3307C15.1805 20.272 15.2658 18.0127 16.1475 16.0147C16.1475 16.0147 18.1435 15.389 22.7018 18.4577C26.6018 17.3851 30.7189 17.3851 34.6188 18.4577C39.177 15.3593 41.1732 16.0147 41.1732 16.0147C42.055 18.0126 42.1403 20.272 41.4115 22.3307C43.0187 24.0725 43.8936 26.3663 43.8545 28.7361C43.8545 37.8823 38.2832 39.9082 32.9802 40.5041C33.549 41.0806 33.9871 41.7727 34.2647 42.5336C34.5423 43.2944 34.6529 44.106 34.589 44.9134C34.589 48.1012 34.5592 50.6633 34.5592 51.4677C34.5592 52.0934 35.0061 52.8382 36.1978 52.5998C41.5573 50.7953 46.101 47.1448 49.0179 42.3C51.9348 37.4552 53.035 31.7315 52.1222 26.1506C51.2093 20.5696 48.3428 15.4947 44.0343 11.8318C39.7259 8.16884 34.2558 6.15626 28.6007 6.15332Z" fill="#C9A227"/>
</svg>
