<svg width="17" height="450" viewBox="0 0 17 450" fill="none" xmlns="http://www.w3.org/2000/svg">
<path d="M8.05594 0C3.63767 -0.000559292 0.0554909 3.58071 0.0549316 7.99899C0.0543723 12.4173 3.63564 15.9994 8.05392 16C12.4722 16.0006 16.0544 12.4193 16.0549 8.00101C16.0555 3.58273 12.4742 0.000559292 8.05594 0ZM8.00101 434C3.58273 433.999 0.000552588 437.581 -6.70433e-06 441.999C-0.000566 446.417 3.5807 449.999 7.99898 450C12.4173 450.001 15.9994 446.419 16 442.001C16.0006 437.583 12.4193 434.001 8.00101 434ZM6.55493 7.99981L6.49999 442L9.49999 442L9.55493 8.00019L6.55493 7.99981Z" fill="#C9A227"/>
</svg>
