<svg width="48" height="48" viewBox="0 0 48 48" fill="none" xmlns="http://www.w3.org/2000/svg">
<path d="M16 24C16 24.5304 16.2107 25.0391 16.5858 25.4142C16.9609 25.7893 17.4696 26 18 26H30C30.5304 26 31.0391 25.7893 31.4142 25.4142C31.7893 25.0391 32 24.5304 32 24C32 23.4696 31.7893 22.9609 31.4142 22.5858C31.0391 22.2107 30.5304 22 30 22H18C17.4696 22 16.9609 22.2107 16.5858 22.5858C16.2107 22.9609 16 23.4696 16 24ZM20 30H14C12.4087 30 10.8826 29.3679 9.75736 28.2426C8.63214 27.1174 8 25.5913 8 24C8 22.4087 8.63214 20.8826 9.75736 19.7574C10.8826 18.6321 12.4087 18 14 18H20C20.5304 18 21.0391 17.7893 21.4142 17.4142C21.7893 17.0391 22 16.5304 22 16C22 15.4696 21.7893 14.9609 21.4142 14.5858C21.0391 14.2107 20.5304 14 20 14H14C11.3478 14 8.8043 15.0536 6.92893 16.9289C5.05357 18.8043 4 21.3478 4 24C4 26.6522 5.05357 29.1957 6.92893 31.0711C8.8043 32.9464 11.3478 34 14 34H20C20.5304 34 21.0391 33.7893 21.4142 33.4142C21.7893 33.0391 22 32.5304 22 32C22 31.4696 21.7893 30.9609 21.4142 30.5858C21.0391 30.2107 20.5304 30 20 30ZM34 14H28C27.4696 14 26.9609 14.2107 26.5858 14.5858C26.2107 14.9609 26 15.4696 26 16C26 16.5304 26.2107 17.0391 26.5858 17.4142C26.9609 17.7893 27.4696 18 28 18H34C35.5913 18 37.1174 18.6321 38.2426 19.7574C39.3679 20.8826 40 22.4087 40 24C40 25.5913 39.3679 27.1174 38.2426 28.2426C37.1174 29.3679 35.5913 30 34 30H28C27.4696 30 26.9609 30.2107 26.5858 30.5858C26.2107 30.9609 26 31.4696 26 32C26 32.5304 26.2107 33.0391 26.5858 33.4142C26.9609 33.7893 27.4696 34 28 34H34C36.6522 34 39.1957 32.9464 41.0711 31.0711C42.9464 29.1957 44 26.6522 44 24C44 21.3478 42.9464 18.8043 41.0711 16.9289C39.1957 15.0536 36.6522 14 34 14Z" fill="#C9A227" fill-opacity="0.8"/>
</svg>
