<svg width="58" height="59" viewBox="0 0 58 59" fill="none" xmlns="http://www.w3.org/2000/svg">
<path d="M48.7881 5.66604H8.41341C7.95956 5.65974 7.50892 5.7429 7.08721 5.91078C6.6655 6.07866 6.281 6.32796 5.95565 6.64446C5.6303 6.96095 5.37049 7.33843 5.19104 7.75535C5.0116 8.17227 4.91604 8.62045 4.90982 9.0743V49.9257C4.91604 50.3795 5.0116 50.8277 5.19104 51.2446C5.37049 51.6616 5.6303 52.039 5.95565 52.3555C6.281 52.672 6.6655 52.9213 7.08721 53.0892C7.50892 53.2571 7.95956 53.3403 8.41341 53.334H48.7881C49.242 53.3403 49.6926 53.2571 50.1143 53.0892C50.536 52.9213 50.9205 52.672 51.2459 52.3555C51.5712 52.039 51.8311 51.6616 52.0105 51.2446C52.1899 50.8277 52.2855 50.3795 52.2917 49.9257V9.0743C52.2855 8.62045 52.1899 8.17227 52.0105 7.75535C51.8311 7.33843 51.5712 6.96095 51.2459 6.64446C50.9205 6.32796 50.536 6.07866 50.1143 5.91078C49.6926 5.7429 49.242 5.65974 48.7881 5.66604ZM19.2817 45.5641H12.1315V24.1135H19.2817V45.5641ZM15.7066 21.1104C14.7205 21.1104 13.7748 20.7187 13.0775 20.0214C12.3802 19.3242 11.9885 18.3784 11.9885 17.3923C11.9885 16.4062 12.3802 15.4605 13.0775 14.7633C13.7748 14.066 14.7205 13.6743 15.7066 13.6743C16.2302 13.6149 16.7605 13.6668 17.2627 13.8265C17.7648 13.9863 18.2276 14.2503 18.6207 14.6013C19.0137 14.9523 19.3282 15.3824 19.5436 15.8634C19.7589 16.3443 19.8702 16.8654 19.8702 17.3923C19.8702 17.9193 19.7589 18.4404 19.5436 18.9213C19.3282 19.4023 19.0137 19.8324 18.6207 20.1834C18.2276 20.5344 17.7648 20.7984 17.2627 20.9582C16.7605 21.1179 16.2302 21.1698 15.7066 21.1104ZM45.07 45.5641H37.9198V34.0523C37.9198 31.1684 36.895 29.2855 34.2971 29.2855C33.4931 29.2914 32.7102 29.5436 32.0539 30.0081C31.3976 30.4726 30.8995 31.1271 30.6267 31.8834C30.4401 32.4436 30.3593 33.0336 30.3883 33.6233V45.5402H23.2381C23.2381 45.5402 23.2381 26.0441 23.2381 24.0897H30.3883V27.1166C31.0379 25.9895 31.9826 25.061 33.1207 24.431C34.2589 23.801 35.5473 23.4935 36.8473 23.5415C41.6141 23.5415 45.07 26.6161 45.07 33.2181V45.5641Z" fill="#C9A227"/>
</svg>
